<svg xmlns="http://www.w3.org/2000/svg" width="512" height="512" viewBox="0 0 512 512" role="img" aria-labelledby="title desc">
  <title id="title">GaugeHand logo</title>
  <desc id="desc">A square icon showing a contour-field pin array forming a robotic hand contact surface.</desc>
  <rect width="512" height="512" rx="92" fill="#0b171a"/>
  <rect x="80" y="82" width="352" height="348" rx="44" fill="#123337" stroke="#8ee5d9" stroke-width="10"/>
  <g fill="#79dfcf">
    <rect x="125" y="132" width="164" height="12" rx="6"/>
    <rect x="125" y="170" width="202" height="12" rx="6"/>
    <rect x="125" y="208" width="236" height="12" rx="6"/>
    <rect x="125" y="246" width="268" height="12" rx="6"/>
    <rect x="125" y="284" width="238" height="12" rx="6"/>
    <rect x="125" y="322" width="190" height="12" rx="6"/>
    <rect x="125" y="360" width="146" height="12" rx="6"/>
  </g>
  <g fill="#f7fffd">
    <circle cx="289" cy="138" r="16"/>
    <circle cx="327" cy="176" r="16"/>
    <circle cx="361" cy="214" r="16"/>
    <circle cx="393" cy="252" r="16"/>
    <circle cx="363" cy="290" r="16"/>
    <circle cx="315" cy="328" r="16"/>
    <circle cx="271" cy="366" r="16"/>
  </g>
</svg>
